<svg xmlns="http://www.w3.org/2000/svg" version="1.1" xmlns:xlink="http://www.w3.org/1999/xlink" xmlns:svgjs="http://svgjs.dev/svgjs" viewBox="0 0 1422 800"><g fill="none" stroke-width="1" stroke="hsl(32, 0%, 100%)" stroke-linecap="round"><path d="M1495.78 350.21C1510.69 376.31 1515.57 401.99 1509.61 427.3 1494.86 452.74 1472.67 478.09 1446.71 503.56 1421.63 529.54 1400 556.1 1384.24 583.54 1376.5 611.9 1375.45 641.5 1379.51 672.42 1387.77 704.17 1396.03 736.93 1401.59 770.17 1403.66 802.85 1399.24 834.52 1387.82 863.94 1370.47 890.2 1347.07 912.19 1319.22 928.82 1288.81 940.75 1257.15 947.17 1225.85 948.72 1196.25 948.57 1169 947.22 1144.48 947.19 1123.3 952.36 1104.71 963.3 1088.15 981.34 1074.08 1006.94 1060.85 1037.84 1047.74 1071.07 1035.57 1103.12 1022.5 1129.47 1008.12 1146.36 993.66 1152.83 977.49 1148.05 959.58 1134.31 941.28 1117.75 921.3 1102.34 899.8 1093.51 878.02 1096.32 854.94 1110.4 830.74 1133.56 806.46 1161.6 781.22 1186.86 755.13 1202.56 729.03 1205.36 702.7 1193.37 676.15 1170 649.52 1141.92 622.52 1114.88 595.08 1094.68 567.37 1085.83 539.01 1087.83 509.96 1098.15 480.52 1113.93 450.35 1128.28 419.58 1136.37 388.74 1136.13 357.72 1124.7 327.03 1103.06 297.3 1074.21 268.93 1041.03 242.78 1007.45 219.12 977.09 198.87 952.06 182.72 933.37 159.48 914.98 146.7 894.09 134.06 872.15 118.3 852.14 97.44 828.03 72.09 800.84 43.25 771.38 13.73 740.38 -13.65 708.76 -36.83 676.6 -52.78 644.76 -59.76 613.67 -58.73 582.83 -49.56 552.9 -34.55 523.93 -18.67 495.25 -4.15 467.33 5.43 440.11 6.23 412.99 -1.29 386.37 -16.2 360.27 -36.85 334.18 -57.54 309.22 -74.03 285.52 -84.29 261.91 -84.65 239.75 -74.81 219.21 -56.95 198.97 -32.52 180.55 -4.96 164.05 21.6 147.8 44.89 133.29 62.83 120.23 75.78 100.08 70.83 55.74 65.06 26.78 64.07 2.79 68.31 -24.6 78.41 -55.31 93.57 -88.52 114.4 -122.95 139.82 -156.71 168.39 -187.81 199.27 -214.06 231.1 -233.35 262.86 -245.47 293.73 -249.49 323.12 -246.31 350.61 -239.9 376.21 -232 400.1 -226.43 422 -228.07 442.73 -237.9 462.76 -256.79 481.54 -284 500.35 -315.35 519.58 -345.86 538.27 -370.9 557.87 -385.36 578.58 -386.58 599.13 -376.45 621 -357.09 644.25 -334.17 667.48 -315.97 692.15 -306.62 718.24 -309.42 744.34 -325.12 771.25 -347.74 798.85 -370.61 826.42 -388.62 854.64 -395.01 883.29 -387.75 911.8 -368.85 940.55 -340.98 969.2 -309.7 997.31 -281.23 1024.85 -259.45 1051.29 -246.8 1076.48 -244.56 1099.85 -249.65 1120.8 -258.42 1147.76 -271.18 1183.3 -254.23 1192.87 -219.52 1198.38 -188.68 1203.33 -154.76 1208.96 -120.4 1217.74 -87.76 1229.48 -58.34 1245.13 -32.93 1265.84 -12.22 1290.66 4.62 1318.82 18.57 1349.25 29.38 1379.57 39.3 1407.33 49.47 1439.19 64.75 1454.04 106.57 1439.04 133.92 1426.21 153.83 1414.24 175.61 1406.46 198.84 1406.68 222.59 1414.72 247.32 1430.15 272.7 1451.8 298.22 1475.13 324.12 1495.78 350.21Q1495.78 350.21 1495.78 350.21" opacity="0.44"></path><path d="M1453.78 363.87C1468.07 388.52 1473.43 413.77 1469.06 439.58 1456.62 465.47 1436.9 492.08 1412.85 519.43 1388.43 547.01 1365.88 575.46 1347.62 604.74 1336.01 634.16 1330.53 664.2 1330.41 694.49 1335.45 724.21 1342.3 753.33 1348.65 781.04 1353.83 806.71 1354.6 829.63 1349.89 848.89 1340.2 864.77 1324.47 876.27 1303.5 883.28 1278.72 887.74 1250.81 889.25 1221.19 889.19 1191.17 890.82 1161.64 894.49 1133.42 902.12 1107.19 916.01 1083.05 935.76 1060.96 961.16 1041.26 991.14 1023.15 1022.93 1006.14 1053.33 983.18 1088.66 937.88 1101.34 913.57 1081.58 897.15 1066.54 879.39 1054.7 860.24 1050.19 841.06 1056.57 820.45 1072.64 798.48 1095.91 776.47 1122.57 753.13 1146.01 728.48 1160.56 703.84 1163.57 678.47 1153.24 652.47 1132.24 626.44 1106.08 599.74 1079.46 572.45 1057.61 545.12 1045 517.22 1042.09 488.93 1047.73 460.77 1060.36 432.48 1074.42 404.43 1085.56 377.06 1091.52 350.55 1088.43 325.47 1075.74 302.01 1054.99 280.84 1027.42 262.55 996.05 246.66 964.08 234.12 933.99 225.08 907.79 211.61 866.35 187.6 842.58 165.77 831.95 144.82 821.62 120.17 807.51 93.01 789.93 64.67 769.86 37.74 747 14.63 722.11 -3.31 695.71 -13.87 668.23 -16.17 640.3 -11.82 611.8 -1.04 583.42 13.87 555.53 28.4 527.52 40.87 500.19 48.43 473.7 47.93 447.21 40.07 421.58 25.78 396.94 6.36 372.29 -13.22 349.21 -29.38 327.69 -40.47 306.17 -42.98 286.2 -36.3 267.73 -22.06 249.15 -0.92 231.86 24.39 215.65 50.41 198.87 75.07 182.58 96.14 166.26 111.45 148.44 121.25 129.65 126 109.26 125.59 86.38 122.83 61.2 119.62 33.54 116.33 3.66 116.03 -27.95 119.84 -60.37 127.33 -92.25 140.01 -122.26 157.52 -148.61 178.77 -170.24 203.68 -185.69 231.16 -194.12 260.25 -197.02 290.22 -194.36 320.23 -188.06 349.83 -182.35 378.52 -178.66 406.04 -179.89 432.29 -189.18 457.33 -206.18 481.31 -230.2 504.12 -259.4 526.29 -289.51 548.12 -316.05 569.24 -335.59 590.48 -344.46 612.09 -341.36 633.39 -329.02 655.37 -309.66 678.16 -288.38 700.87 -272.25 724.54 -264.41 749.19 -267.42 773.83 -281.97 798.87 -302.9 824.16 -324.69 849.38 -343.09 874.7 -351.91 899.88 -348.78 924.76 -334.76 949.17 -311.16 972.77 -282.21 995.65 -253.19 1017.25 -227.85 1037.15 -209.29 1064.19 -199 1104.96 -214.67 1118.64 -222.94 1126.61 -222.68 1133.33 -214.99 1139.5 -199.78 1147.28 -178.31 1156.22 -151.22 1167.27 -120.55 1182.06 -88.19 1200.14 -55.85 1221.75 -25.05 1247.05 3.19 1274.79 28.37 1303.74 50.49 1332.61 69.21 1359.26 85.57 1381.65 100.37 1404.02 119.39 1404.61 157.93 1388.19 180.09 1376.77 195.53 1367.41 212.73 1362.68 231.63 1365.51 250.76 1375.27 271.46 1391.24 293.57 1412.28 315.77 1434.36 339.23 1453.78 363.87Q1453.78 363.87 1453.78 363.87" opacity="0.10"></path><path d="M1411.78 402.49C1425.42 425.68 1431.16 449.8 1428.24 474.72 1418.02 499.63 1400.81 525.3 1378.94 551.55 1355.72 577.68 1333.01 604.18 1313.09 630.73 1298.34 656.73 1288.79 682.26 1284.35 706.73 1285.35 729.86 1289.34 751.12 1294.55 769.86 1302.41 793.1 1296.85 820.21 1279.12 825.45 1261.59 828.34 1239.93 831.12 1215.17 835.23 1188.43 843.16 1160.39 854.85 1132.01 871.21 1104 892.95 1076.86 918.95 1050.99 947.94 1026.65 978.16 1003.79 1006.9 982.25 1031.38 962.27 1049.82 943.2 1060.03 924.7 1061.23 907.23 1055.45 889.78 1043.61 872.04 1028.87 854.8 1016.48 836.88 1008.66 818.1 1008.34 799.49 1017.82 779.82 1035.36 759.01 1058.38 738.24 1083.51 716.26 1105.13 693.06 1118.56 669.87 1121.74 646 1112.96 621.6 1094.3 597.22 1070.26 572.37 1044.56 547.24 1021.78 522.27 1006.16 497.22 998.78 472.38 999.52 448.03 1007.93 424.28 1019.85 401.56 1031.69 379.86 1041.46 359.73 1044.92 341.62 1040.53 325.07 1028.74 310.96 1009.2 299.54 983.75 289.67 954.81 282.28 924.37 277.1 894.72 272.29 867.77 268.48 844.52 264.82 825.42 255.53 805.68 219.45 784.08 189.91 775.89 165.65 770.21 139.45 762.41 112.77 752.15 86.87 740.48 63.97 726.1 45.96 709.29 33.41 691.05 27.85 670.85 29.51 649.2 36.34 626.67 47.98 603.25 62.25 579.39 75.17 555.17 85.55 530.88 91.18 506.81 89.51 482.67 81.42 458.92 67.78 435.72 49.59 412.52 31.13 390.43 15.43 369.4 3.77 348.28 -0.55 328.05 3.21 308.53 13.93 288.65 31.52 269.09 53.97 249.54 78.41 229.1 103.15 208.1 126.06 186.15 144.89 162.76 159.32 137.94 169.13 111.53 173.7 83.7 174.9 54.52 174.08 24.46 171.34 -5.61 169.44 -35.1 169.65 -62.82 171.71 -87.79 177.64 -108.87 187.69 -124.92 201.02 -136.22 218.34 -141.92 239.02 -142.36 262.18 -140.1 287.57 -135.49 314.39 -130.7 342.1 -129.4 370.19 -132.34 398.12 -141.24 425.82 -157.53 452.88 -179.9 479.17 -206.67 504.82 -235.51 529.72 -262.53 553.94 -284.04 577.63 -297.87 600.9 -301.56 623.9 -294.9 646.61 -281.07 669.31 -262.21 692.11 -242.75 714.82 -228.67 737.78 -222.24 760.97 -225.42 784.17 -238.84 807.06 -258.11 829.52 -278.66 851.91 -297.09 873.73 -307.8 894.76 -308.33 915.5 -299.06 935.21 -280.17 953.61 -254.69 971.47 -226.86 987.77 -199.92 1002.32 -177.14 1037.83 -157.15 1079.34 -171.43 1093.94 -165.87 1106.44 -154.84 1120.97 -137.58 1138.04 -115.1 1158.4 -88.81 1181.42 -59.74 1206.75 -29.45 1233.93 1 1261.66 30.51 1288.55 58.34 1313.53 84.11 1334.8 107.68 1350.92 129.23 1361.8 148.58 1366.28 166.52 1364.45 183.59 1358.54 199.31 1348.9 214.99 1337.55 231.07 1328.19 246.6 1321.68 263.07 1319.91 280.69 1325.09 298.18 1336.25 317.03 1352.49 337.3 1372.78 357.57 1393.59 379.29 1411.78 402.49Q1411.78 402.49 1411.78 402.49" opacity="0.50"></path><path d="M1369.77 439.37C1382.74 461.11 1388.77 483.29 1387.16 505.74 1379.03 528.11 1364.33 550.6 1344.84 572.95 1323.29 594.97 1301.12 616.49 1280.4 637.14 1263.37 657.02 1250.41 675.52 1241.9 692.24 1243.46 729.73 1252.61 761.66 1244.41 768.46 1234.19 775.22 1219.78 783.92 1201.71 795.5 1180.92 811.28 1157.6 830.82 1132.57 854.02 1106.52 880.43 1079.98 908.59 1053.52 936.81 1027.43 963.35 1002.06 986 977.59 1002.76 954.06 1013.11 931.45 1015.87 909.67 1011.34 888.76 1002.29 868.39 989.86 848.34 976.99 828.84 968.06 809.33 964.43 789.63 967.97 770.17 980 750.27 998.49 729.83 1020.91 709.44 1044.39 688.38 1064.21 666.64 1076.55 644.89 1079.86 622.97 1072.54 601 1056.16 579.09 1034.37 557.25 1010.04 535.7 987.03 514.39 969.23 493.61 958.02 473.65 954.02 454.25 957.65 436.01 966.01 419.22 976.44 396.25 991.25 361.12 988.2 349.05 965.47 341.99 943.14 336.16 916.87 331.09 888.56 325.01 860.01 318.47 832.58 310.76 807.43 300.33 785.47 287.6 766.76 272.13 751.1 253.29 738.83 231.82 728.65 208.2 719.74 182.96 712.55 157.55 705.22 133.39 697.12 102.49 684.35 72.89 649.33 77.04 626.82 85.5 610.61 97.28 592.92 110.44 574.03 121.54 554.79 129.84 534.65 133.66 513.85 130.98 492.95 122.74 471.56 109.77 449.82 92.8 428.07 75.5 406.48 60.39 385.02 48.42 363.47 42.6 341.87 43.79 320.1 51.17 297.98 65.13 275.39 84.26 252.14 106.27 228.27 129.91 203.5 153.28 177.78 174.27 151.44 192.22 124.27 206.48 96.54 216.09 68.94 222.1 41.59 225.26 15.27 225.01 -20.41 224.72 -71.39 230.2 -83.51 241.97 -86.72 285.6 -80.04 315.86 -79.32 338.41 -84.63 362.41 -94.92 387.29 -110.76 412.83 -132.26 438.61 -157.56 464.28 -184.52 489.98 -210.89 515.31 -233.41 540.11 -249.31 564.73 -257.59 588.83 -256.76 612.39 -247.35 635.79 -232.74 658.77 -214.81 681.3 -197.32 703.79 -185.24 725.93 -180.12 747.68 -183.43 769.42 -195.76 790.26 -213.37 810.13 -232.56 829.95 -250.68 848.71 -262.77 866.32 -266.41 883.77 -261.56 899.96 -247.55 914.8 -226.35 929.45 -201.2 942.74 -174.61 954.73 -149.63 972.22 -121.67 1004.04 -103.29 1020.33 -107.98 1032.92 -113.55 1046.63 -117.51 1061.91 -118.24 1079.62 -115.76 1099.36 -108.15 1121.16 -95.43 1145.08 -78.52 1170.42 -57.35 1196.49 -33 1222.6 -6.45 1247.55 21.44 1270.07 49.69 1289.56 77.84 1304.62 105.15 1314.41 131.24 1319.55 156.11 1319.31 179.58 1314.27 201.79 1306.84 222.77 1297.35 242.88 1287.62 262.46 1280.75 281.26 1277.18 300.03 1278.2 319.02 1285.4 337.68 1297.62 356.93 1313.89 376.91 1333.3 396.82 1352.8 417.62 1369.77 439.37Q1369.77 439.37 1369.77 439.37" opacity="0.30"></path><path d="M1327.78 449.06C1340.05 469.36 1346.26 489.2 1345.8 508.49 1339.61 527.7 1327.35 546.2 1310.36 563.79 1290.86 581.1 1269.88 597.25 1249.18 612.01 1208.51 648.73 1194.29 687.68 1198.49 697.62 1201.58 710.07 1191.7 746.6 1176.64 773.58 1162.85 795.62 1146.05 820.06 1126.78 846.15 1105.73 872.89 1083.09 898.86 1059.45 922.44 1035.15 942.49 1010.59 957.41 986.13 966.12 961.8 969.21 937.91 966.19 914.6 958.06 891.7 947.86 869.38 936.58 847.61 926.72 826.21 921.72 805.19 922.17 784.48 929.08 763.98 943.07 743.6 961.99 723.3 983.5 703.05 1005.24 682.78 1023.28 662.48 1034.56 642.18 1037.95 622.35 1031.98 603.06 1017.81 583.83 998.37 565.25 975.77 547.47 953.2 521.61 926.96 475.99 912.34 456.85 921.65 426.3 941.97 390.51 914.07 378.73 881.7 368.96 856.4 357.9 829.73 345.08 803 329.66 777.21 312.09 753.08 292.39 731.08 270.49 711.63 247.22 694.49 223.33 679.33 199.45 666.46 176.87 654.81 156.81 643.82 133.5 629.08 118.01 597.67 126.05 579.44 135.29 566.8 146.58 552.78 158.26 537.39 167.41 521.89 173.69 505.09 175.87 487.07 172.32 469.01 164.05 449.8 151.78 429.51 136.01 409.21 119.91 388.3 105.5 366.83 93.44 345.32 86.47 323.17 85.43 300.39 89.74 277.5 100.14 253.92 115.7 229.73 134.64 205.48 156.17 180.75 178.7 155.79 200.36 131.18 220.43 106.84 237.99 83.27 251.95 60.94 262.71 40.24 270.51 21.82 282.39 -20.55 312.13 -28.64 332.32 -37.64 348.24 -49.89 366.15 -66.59 385.62 -87.38 406.19 -111.55 427.79 -137.11 450.01 -161.91 472.77 -184.14 495.75 -201.28 518.7 -211.48 541.82 -214.71 564.7 -210.19 587.18 -198.9 609.68 -184.16 631.73 -167.53 653.23 -152.1 674.72 -141.95 695.66 -138.03 715.96 -141.42 736.25 -152.69 755.43 -168.67 773.47 -186.4 799.96 -210.37 847.34 -217.47 868.41 -196.4 882.29 -175.08 895.35 -150.59 907.77 -125.51 920.72 -102.5 933.42 -82.94 946.18 -67.92 967.25 -56.16 1016.04 -56.83 1045.04 -61.3 1066.58 -63.42 1089.44 -62.52 1113.34 -57.96 1137.94 -50.31 1162.55 -38.5 1186.38 -22.94 1208.85 -4.46 1228.93 16.82 1245.67 40.11 1259.01 64.85 1267.92 90.41 1272.06 116.18 1272.6 142.06 1269.07 167.47 1262.29 192.16 1254.64 216.37 1246.32 239.74 1238.84 262.3 1234.73 284.36 1234.02 305.82 1237.54 326.79 1246.41 347.47 1259.36 367.93 1275.43 388.25 1293.85 408.5 1312.01 428.77 1327.78 449.06Q1327.78 449.06 1327.78 449.06" opacity="0.79"></path><path d="M1285.64 424.66C1297.23 443.51 1303.58 461.28 1304.18 477.95 1299.8 494.59 1289.94 510.06 1275.53 524.33 1258.37 538.51 1239.11 551.45 1219.22 563.13 1191.93 580.09 1153.82 609.53 1144.75 623.34 1142.91 638.92 1146.78 677.25 1147.8 702.16 1147.21 721.73 1144.25 743.26 1138.69 766.5 1131.26 790.95 1121.05 815.88 1108.29 840.28 1093.7 863.23 1076.98 883.54 1058.57 900.02 1038.96 912.35 1018.24 919.51 996.83 921.2 974.89 918.81 952.69 912.25 930.53 902.79 908.27 893.35 886.25 884.62 864.61 878.5 843.04 877.53 821.89 881.72 801.2 891.39 780.59 906.71 760.4 925.58 740.66 945.91 720.95 965.83 701.65 982.13 682.8 992.37 663.95 995.8 646.01 991.06 629.01 979.01 612.04 961.96 596.06 941.39 581.12 919.85 559.39 892.09 521.6 866.08 505.48 868.88 476.14 889.2 431.72 886.98 413.68 866.54 399.47 848.02 383.8 826.46 366.53 802.92 347.39 778.31 326.82 753.4 305.16 728.96 282.66 705.46 260.12 683.3 238.32 662.66 217.77 643.72 199.54 626.26 184.55 610.06 169.13 588.33 165.79 548.61 176.31 528.95 190.7 509.29 215.01 465.91 217.81 441.65 213.49 425.13 205.23 407.46 193.64 388.61 179.06 369.77 164.15 350.2 150.55 330.01 138.67 309.84 130.9 289.09 128.08 267.92 129.73 246.88 136.82 225.56 148.8 204.22 164.3 183.27 182.96 162.64 203.53 142.69 224.45 123.62 245.07 105.76 264.44 89.55 304.64 54.64 333.12 31.34 336.64 30.77 339.88 28.62 353.92 11.6 366.16 -7.4 376.1 -25.23 387.98 -46.09 401.6 -69.07 416.25 -93.16 432.34 -116.51 449.56 -137.28 467.47 -154.3 486.18 -165.77 505.39 -170.62 524.97 -169.58 544.79 -162.29 564.65 -149.95 584.65 -135.69 604.52 -120.66 624.12 -107.34 643.75 -99.01 663.04 -96.18 681.88 -99.61 700.73 -109.85 718.69 -124.23 735.77 -140.42 761.03 -163.69 807.96 -178.4 830.12 -164.39 845.1 -147.64 859.86 -126.64 874.61 -103.38 890.05 -80.11 905.81 -58.18 922.11 -38.98 939.44 -23.86 957.6 -12.76 976.71 -5.47 996.94 -2.32 1018.14 -1.64 1040.18 -2.34 1062.88 -4.49 1085.91 -5.89 1108.8 -5.65 1131.16 -4.18 1152.34 0.16 1171.64 7.55 1188.82 17.26 1203.02 30.01 1213.66 45.41 1221.18 62.78 1224.82 82.11 1224.64 102.84 1222.09 124.64 1216.83 147.14 1209.72 169.88 1202.96 192.97 1196.57 215.89 1191.71 238.41 1190.36 260.91 1192.28 282.89 1197.9 304.25 1207.99 325.53 1221.31 346.23 1236.92 366.3 1254.24 386.34 1271.06 405.82 1285.64 424.66Q1285.64 424.66 1285.64 424.66" opacity="0.96"></path><path d="M1243.77 383.46C1257.73 409.03 1255.58 455.02 1239.82 475.61 1208.53 502.82 1171.74 527.33 1137.69 550.63 1113.6 577 1099.22 605.55 1092.65 638.46 1093.7 677.21 1094.25 720.84 1090.22 766.69 1082.72 810.35 1066.61 846.08 1042.75 867.28 1014.06 874.06 980.05 865.43 943.21 847.91 904.63 836.43 865.5 837.05 827.27 855.36 808.08 871.38 789.23 889.75 770.83 908.66 752.42 926.72 734.47 941.31 717.08 950.55 699.68 953.98 683.24 950.36 667.76 940.3 652.28 925.64 637.74 907.31 624.12 887.31 596.73 851.21 572.57 827.53 550.85 820.24 527.39 829.14 504.1 841.93 479.17 848.78 449.4 846.63 415.55 828.6 377.46 797.15 335.88 757.03 294.08 711.97 256.8 666.9 227.14 623.85 210.32 584.51 208.9 548.71 217.45 516.11 234.44 484.87 252.29 453.49 258.79 430.27 250.61 381.61 235.77 355.82 222.4 338.42 208.72 320.82 196.01 303.11 184.44 285.45 176.14 267.81 171.84 250.35 174.39 216.11 194.92 184.05 228.4 156.35 266.69 131.85 304.86 113.89 337.71 103.32 361.18 94.76 377.34 89.87 388.76 84.39 394.97 70.23 402.54 47.01 413.99 12.94 426.9 -30.13 445.79 -74.12 470.02 -108.52 496.4 -126.74 526.73 -122.87 559.46 -100.2 576.08 -86.91 593.06 -73.7 610.24 -62.48 627.47 -55.86 644.82 -54 662.22 -57.43 679.61 -66.67 696.64 -79.49 713.3 -94.11 730.01 -109.58 746.42 -122.83 762.61 -132.13 795.49 -137.03 828.46 -117.84 862.38 -80.87 898.45 -37.84 936.86 1.98 977.57 31.43 1019.76 46.47 1062.13 51.98 1101.53 53.93 1135.71 53.68 1160.8 60.01 1173.56 74.87 1176.95 95.59 1169.98 124.34 1157.19 158.27 1149.22 195.26 1148.48 234.05 1159.36 272.46 1170.38 291.85 1183.8 310.89 1198.8 329.45 1214.96 348.03 1230.4 366.06 1243.77 383.46Q1243.77 383.46 1243.77 383.46" opacity="0.38"></path><path d="M1201.61 353.27C1218.82 385.17 1219.37 415.19 1203.6 443.73 1177.31 473.04 1143.79 502.35 1109.78 532.87 1081.76 566.04 1060.83 602.2 1047.13 641.52 1041.74 682.73 1039.03 724.43 1035.61 762.8 1032.46 794.65 1023.94 815.79 1009.42 823.01 991.64 820.34 968.18 808.51 940.6 794.43 911.01 789.97 879.13 797.84 846.49 820.08 813.37 854.11 780.45 887.77 748.55 908.33 716.66 909.85 687.3 889.09 660.27 854.56 632.77 819.24 606.62 791.26 580.94 776.06 553.24 776.16 524.18 783.96 492.8 792.12 458.17 798 420.89 793.09 382.24 776.44 343.86 750.84 308.76 716.64 280.94 677.94 261.43 636.98 253.75 596.22 258.39 557.37 269.03 519.78 284.39 484.27 298.37 450.53 301.83 417.46 294.82 385.03 277.61 353.13 251.97 321.24 229.25 291.39 216.42 264.31 214.61 237.9 228.46 215.39 255.02 197.71 288.34 181.28 325.05 169.52 360.21 161.33 389.64 150.87 413.35 139.28 431.92 123.08 444.37 97.93 455.25 65.02 466.86 25.93 477.33 -15.43 491.38 -51.83 509.56 -75.31 528.6 -83.48 551.77 -73.66 578.38 -50.65 605.43 -28.43 635.17 -14.13 667.07 -15.65 698.96 -36.21 731.5 -63.41 764.6 -85.13 798.14 -95.06 832.99 -84.78 869.22 -56.94 906.32 -19.48 944.79 20.94 983.48 56.82 1021.02 82.81 1055.94 99.48 1085.28 109.44 1115.57 114.92 1120.4 142.92 1106.41 173.21 1103.22 197.96 1107.53 226.67 1121.64 257.51 1146.79 289.13 1175.97 321.38 1201.61 353.27Q1201.61 353.27 1201.61 353.27" opacity="0.94"></path><path d="M1159.77 355.64C1175.85 384.64 1178.03 414.41 1166.3 444.96 1145 476.03 1115.74 508.74 1083.68 543.22 1054.26 578.66 1029.03 615.73 1009.33 653.05 996.94 688.65 988.53 720.89 981.86 746.4 974.92 768.59 943.81 758 916.61 744.82 895.69 747.68 871.51 761.58 845.1 786.19 818.23 818.46 789.99 848.47 760.99 866.55 732 868.79 703.63 852.01 675.81 822.19 647.54 789.11 618.97 759.07 589.65 737.77 558.91 729.12 526.54 729.3 492.59 733.81 457.54 741.27 422 743.69 387.89 738.37 356.56 726.9 330.6 706.64 312.79 679.8 302.3 648.73 301.53 614.56 309.69 579.63 320.49 543.95 333.26 509.17 343.36 476.16 343.91 443.26 335.85 412.1 319.77 383.1 296.65 354.11 275.63 328.65 262.09 306.87 256.72 285.2 264.38 267.23 283.73 252.67 310.52 237.35 343.06 223.77 377.2 210.16 409.22 192.31 438.07 170.94 462.96 144.41 482.64 111.73 499.5 74.93 515.08 37.28 528.03 2.58 542.2 -23.59 558.63 -36.2 574.68 -36.15 593.95 -22.62 616.52 -0.73 639.19 17.89 665.09 28.8 694.08 26.56 723.08 8.48 753.79 -15.63 785.81 -36.72 817.92 -50.14 851.4 -47.54 885.59 -29.15 919.41 0.08 952.99 36.47 984.73 73.6 1013.84 106.26 1038.6 132.61 1056.92 152.44 1072.81 169.63 1066.52 196.11 1057.72 216.26 1059.63 232.02 1068.46 252.06 1085.03 275.67 1109.75 299.81 1136.65 326.65 1159.77 355.64Q1159.77 355.64 1159.77 355.64" opacity="0.95"></path><path d="M1117.77 388.44C1132.68 414.54 1136.22 442.66 1128.17 472.36 1111.81 502.1 1087.45 533.36 1058.85 565.35 1030.32 596.65 1003.25 627.34 979.52 655.54 953.83 690.13 922.48 718.82 909.21 712.12 894.93 703.11 850.32 718.28 819.95 752.85 798.49 782.6 774.56 808.86 748.46 824.56 722.37 827.36 695.34 814.24 667.59 789.28 639.58 759.63 610.44 729.72 580.3 704.69 549.72 688.79 518.18 680.75 486.52 678.55 455.57 682.16 426.12 685.41 400.05 685.34 377.74 683.09 361.42 674.42 352.63 659.67 349.19 641.22 352.86 618.1 362.26 592.11 371.73 564.4 381.24 535.66 387.53 507.19 385.51 478.4 376.68 450.61 361.77 424.51 341.12 398.42 322.01 375.25 308.45 354.83 300.6 334.08 303.16 315.36 315.77 297.84 335.42 278.61 361.86 258.75 392 236.98 422.8 211.51 453.1 182.72 481.38 150.77 506.4 116.63 528.93 82.44 549.49 51.67 567.33 26.69 584.77 11.33 602.75 8.1 619.68 14 638.37 29.06 659.29 48.64 680.02 63.53 703.4 71.36 729.5 68.56 755.59 52.86 783.17 31.88 811.65 12.21 839.94 -3.14 868.72 -6.57 897.02 3.06 924.26 22.87 949.8 51.81 972.18 85.23 991.84 118.86 1006.78 150.27 1015.95 177.6 1022.2 208.48 1014.4 251.01 1012.36 271.08 1018.88 284.31 1031.17 300.52 1049.09 319.99 1072.72 339.5 1097.11 362.34 1117.76 388.43Q1117.77 388.44 1117.77 388.44" opacity="0.60"></path><path d="M1075.78 429.2C1089.42 452.4 1093.95 476.96 1089.07 502.27 1077.32 527.29 1058.14 552.46 1034.09 576.67 1008.43 599.51 982.1 619.96 956.99 636.6 925.24 654.61 878.91 661.1 860.76 654.4 850.4 652.46 838.85 653.48 825.48 659.84 812.46 674.45 797 695.21 778.99 720.01 760.97 746.61 740.34 769.13 717.14 782.56 693.95 785.74 669.28 775.94 643.56 755.81 617.83 730.45 591.09 702.6 563.91 676.42 537.08 655.75 510.44 640.74 485.04 631.14 428.35 625.92 403.48 600.96 414.9 577.95 421.94 560 427.92 539.56 430.72 517.61 426.65 495.25 417.42 472.18 403.78 448.99 385.59 425.79 368.54 403.57 355.51 382.18 346.18 360.38 344.79 338.63 351.52 316.38 364.19 292.71 383.6 267.48 407.71 240.39 434.14 211.6 462.17 181.28 490.15 150.68 516.98 121.2 542.51 94.71 566.47 73.91 588.56 59.35 609.65 53.56 630.2 57.23 649.67 66.4 669.56 81.05 690.25 97.45 710.66 108.64 732.43 113.74 755.62 110.56 778.82 97.13 802.34 79.31 825.68 61.67 848.73 45.82 871.05 38.25 891.77 40.64 911.42 51.29 928.53 71.07 942.19 97.16 953.98 126.43 961.76 157.09 965.32 186.78 967.75 214.14 967.22 238.82 964.94 260.88 964.99 279.99 966.38 297.73 970.71 315.1 980.98 331.08 995.57 348.11 1013.85 366.83 1035.83 385.26 1057.58 406 1075.77 429.19Q1075.78 429.2 1075.78 429.2" opacity="0.55"></path><path d="M1033.78 449.79C1046.05 470.09 1051.18 490.05 1048.92 509.22 1041.27 528.07 1027.17 545.53 1008.25 560.83 986.92 575.07 963.54 586.35 939.73 594.07 917 600.41 895.4 603.27 875.36 603.06 849.39 602.77 804.81 609.86 783.38 625.51 769.6 643.21 754.53 664.54 737.89 687.45 721.4 710.44 703.02 729.28 682.73 740.56 662.43 743.95 641.17 737.06 619.38 721.54 597.75 700.97 575.89 676.69 554.5 651.8 533.8 629.35 514.29 609.98 496.88 594.42 463.28 572.93 457.41 550.19 466.45 535.87 471.77 517.97 462.67 469.16 445.78 439.61 430.01 419.31 415.14 398.18 403.12 376.35 393.23 354.3 389.13 331.16 391.21 306.99 397.75 282.33 410.21 256.52 427.4 230.12 447.47 203.97 470.33 178.37 494.61 154.78 519.34 133.92 544.12 117.4 568.29 106.84 591.73 101.27 614.39 102.43 636.2 110.01 657.36 120.02 678.11 132.75 698.54 145.48 718.76 153.17 739.06 155.95 759.36 152.56 779.65 141.28 798.99 126.56 817.04 111.4 842.98 91.43 883.83 92.04 897.05 114.55 904.16 135.9 908.52 160.81 910.39 187.27 912.72 214.09 913.91 240.37 914.98 265.31 918.92 288.87 924.66 311.02 933 331.96 945.8 351.83 961.46 371.29 979.17 390.72 999.03 409.82 1018.01 429.5 1033.78 449.79Q1033.78 449.79 1033.78 449.79" opacity="0.98"></path><path d="M991.76 435.97C1005.24 461.22 998.78 502.45 980.32 517.51 946.03 535.15 904.47 543.61 863.3 545.85 826.09 554.97 791.7 570 759.31 596.18 744.01 614.75 728.43 634.89 712.39 654.9 696.52 674.03 679.88 689.31 662.49 698.55 645.09 701.98 627.76 697.54 610.82 686.25 594.04 670.59 577.98 650.9 563.13 629.28 535.22 588.25 515.31 553.9 506.92 528.55 504.81 506.74 516.68 466.84 513.94 448.43 507.46 435.45 498.56 420.26 487.76 402.87 474.39 385.47 461.77 366.69 451.13 346.86 441.53 327.04 435.92 306.24 434.74 284.92 441.56 243.24 466 202.98 501.26 172.17 541.33 151.91 584.18 149.36 625.2 164.88 645.52 173.76 665.27 183.55 684.25 192.49 703.15 197.07 721.41 197.98 738.8 194.55 756.2 185.31 771.91 173.56 785.82 161.14 805.6 142.72 846.38 142.05 857.64 189.47 867.98 232.83 880.45 278.67 899.13 321.33 913.07 342.22 928.58 362.27 944.89 381.37 962.24 400.31 978.39 418.57 991.76 435.97Q991.76 435.97 991.76 435.97" opacity="0.89"></path><path d="M949.76 397.29C965.84 426.29 965.1 447.96 949.47 462.69 925.52 478.31 893.05 489.66 857.89 500.18 822.89 517.88 788.61 541.25 756.59 570.83 725.77 606.23 695.6 638.47 666.6 656.55 637.61 658.79 612.54 639.56 593.11 607.08 574.89 571.11 563.91 535.31 560.91 504.22 558.07 479.71 559.78 458.03 562.47 436.37 556.85 416.84 545.84 393.13 529.76 364.13 506.64 335.14 489.11 303.61 481.76 272.89 481 244.3 493.55 220.73 515.99 207.24 543.38 200.32 575.81 205.37 608.92 220.09 642.71 231.32 675.31 238.79 704.3 236.55 733.3 218.47 755.94 197.99 772.4 183.83 789.54 175.51 802.36 182.89 812.97 203.2 828.54 230.68 846.74 264.58 868.75 299.21 897.36 334.73 926.64 368.3 949.76 397.29Q949.76 397.29 949.76 397.29" opacity="0.60"></path><path d="M907.78 360.5C921.42 383.69 923.52 403.03 915.07 419.15 900.77 436.66 878.78 453.62 852.88 471.72 825.4 494.32 796.78 520.29 769.38 547.98 742.12 576.8 716.19 601.13 692.99 614.56 669.79 617.74 651.53 605.88 638.59 583.4 625.79 556.18 618.21 525.51 615.29 495.67 610.79 468.04 608.17 442.32 605.48 418.51 596.92 396.11 585.42 373.38 571.78 350.18 537.66 291.17 568.06 260.55 601.36 273.81 625.34 279.29 649.96 281.74 673.15 278.56 696.35 265.13 715.93 250.19 732.15 238.38 749.32 227.69 764.98 226.32 780.25 234.13 798.9 246.42 819.37 265.67 841.2 288.36 865.95 312.44 889.58 337.29 907.77 360.49Q907.78 360.5 907.78 360.5" opacity="0.51"></path><path d="M865.77 350.95C883.83 385.75 872.03 422.05 841.95 460.01 805.48 504.16 763.21 549.42 728.42 572.55 693.63 573.17 672.9 539.74 663.76 495.34 648.24 449.62 631.83 405.42 613.77 370.63 579.75 326.43 611.26 318.56 661 320.55 695.79 297.42 728.9 280.37 760.22 281.82 797.62 289.46 837.66 316.16 865.77 350.95Q865.77 350.95 865.77 350.95" opacity="0.26"></path><path d="M823.78 375.3C837.42 398.5 834.64 428.24 820.28 458.67 802.51 489.17 778.29 517.13 755.09 530.56 731.89 533.74 714.12 517.76 701.48 492.79 685.44 464.64 669.42 434.57 655.78 411.37 633.28 382.21 643.18 367.15 673.93 362.56 697.13 349.13 724.03 339.97 750.43 339.87 778.18 339.85 805.58 352.1 823.78 375.3Q823.78 375.3 823.78 375.3" opacity="0.25"></path></g></svg>